<?xml version="1.0" encoding="utf-8"?>
<!-- Generator: Adobe Illustrator 16.0.0, SVG Export Plug-In . SVG Version: 6.00 Build 0)  -->
<!DOCTYPE svg PUBLIC "-//W3C//DTD SVG 1.1//EN" "http://www.w3.org/Graphics/SVG/1.1/DTD/svg11.dtd">
<svg version="1.1" xmlns="http://www.w3.org/2000/svg" xmlns:xlink="http://www.w3.org/1999/xlink" x="0px" y="0px" width="1400px"
	 height="980px" viewBox="0 0 1400 980" enable-background="new 0 0 1400 980" xml:space="preserve">
<g id="BACKGROUND">
	<rect x="-6" y="-10" fill="#6FAF5A" width="1424" height="1000"/>
</g>
<g id="OBJECTS">
	<g>
		<path fill="#4B7F70" d="M335.243,247.479l-0.001-0.009c-0.007-0.028-0.015-0.056-0.024-0.083l-0.003-0.009
			c-1.083-3.741-2.178-7.701-3.292-11.908l-0.001-0.009l-0.003-0.01l-0.003-0.009l0-0.009l-0.006-0.019l-0.001-0.008l-0.002-0.01
			c-0.923-3.488-1.859-7.144-2.808-10.986l-0.003-0.01l-0.001-0.008l-0.016-0.064l-0.002-0.009
			c-0.813-3.29-1.637-6.713-2.475-10.282l-0.017-0.074l-0.003-0.01c-0.573-2.443-2.19-9.524-2.19-9.524
			c-0.451-1.998-0.905-4.036-1.365-6.119l-0.001-0.008l-0.001-0.009l-0.013-0.06l-0.001-0.009l-0.003-0.009
			c-0.614-2.784-1.235-5.648-1.867-8.589c-0.004-0.029-0.01-0.057-0.018-0.083c-0.175-0.817-0.351-1.642-0.527-2.471l0.005-0.001
			c-0.393-1.848-0.853-4.007-1.253-5.917l0-0.002l-0.003-0.01l-0.01-0.059l-0.003-0.01l-0.003-0.01l-0.209-1.001
			c-0.332-1.592-0.666-3.206-1.005-4.842c0.002-0.104-0.018-0.21-0.061-0.304l-0.011-0.054c-0.004-0.028-0.01-0.057-0.017-0.083
			l-0.004-0.018c-0.401-1.948-0.807-3.928-1.215-5.939l-0.002-0.01c-0.004-0.032-0.009-0.063-0.018-0.093
			c-0.266-1.307-0.533-2.629-0.801-3.965l-0.451-2.238l-0.001-0.009c-0.005-0.032-0.011-0.063-0.019-0.094l-0.002-0.007
			c-0.518-2.589-1.042-5.227-1.574-7.918l0-0.007c-0.004-0.028-0.009-0.054-0.016-0.079l-0.003-0.008l-0.001-0.008
			c-0.494-2.506-0.996-5.06-1.5-7.658l-0.001-0.007l-0.001-0.008c-0.002-0.03-0.01-0.059-0.017-0.088
			c-0.439-2.252-0.881-4.542-1.33-6.864c0-0.086-0.016-0.173-0.049-0.255c-0.433-2.254-0.873-4.541-1.314-6.863l-0.001-0.006
			l-0.001-0.008c-0.004-0.03-0.01-0.058-0.017-0.088c-0.451-2.358-0.905-4.753-1.363-7.184l-0.002-0.016
			c-0.004-0.03-0.01-0.06-0.018-0.089c-0.434-2.291-0.869-4.615-1.311-6.97v-0.001l-0.004-0.013l-0.003-0.013l-0.002-0.014
			l-0.003-0.014l-0.937-5.017l-0.001-0.019c-0.004-0.028-0.01-0.055-0.017-0.082l0-0.006l0,0c-0.303-1.626-0.609-3.275-0.917-4.932
			l-5.873,0.772l-6.02,0.791c0.3,3.454,0.59,6.856,0.872,10.18c-0.003,0.042,0,0.086,0.005,0.129l0.011,0.056
			c0.631,7.49,1.221,14.662,1.766,21.533c-0.002,0.032,0.001,0.063,0.006,0.097l0.003,0.02c1.082,13.643,1.994,26.095,2.742,37.504
			v0c0.306,4.673,0.585,9.172,0.837,13.505c0.141,2.412,0.272,4.773,0.396,7.084c0.167,3.144,0.321,6.196,0.459,9.161
			c-0.021,0.084-0.027,0.172-0.014,0.261c0.005,0.048,0.018,0.093,0.032,0.138c0.236,5.105,0.426,10.227,0.573,14.835l0.009-0.036
			c0.458,14.376,0.489,26.43,0.127,36.835l1.468-0.199l17.597-2.385l17.723-2.402C336.971,253.323,336.109,250.473,335.243,247.479z
			"/>
		<path fill="#335B4F" d="M305.718,111.475c-0.205-1.099-0.408-2.194-0.615-3.305l-5.873,0.772l-6.02,0.791
			c0.105,1.214,0.208,2.412,0.311,3.611L305.718,111.475z"/>
		<path fill="#4B7F70" d="M306.193,84.496c-0.051-0.383-0.404-0.65-0.786-0.599c-1.868,0.253-4.128-0.518-6.041-3.219
			c-0.16-0.225-0.315-0.473-0.469-0.725l-1.08-7.447c-0.182-1.253-0.988-2.258-2.055-2.755c-0.104-0.749-0.362-1.422-0.69-1.903
			c-0.424-0.621-0.994-0.965-1.604-0.881c-0.034,0.004-0.061,0.022-0.092,0.029c-0.562,0.118-0.988,0.574-1.218,1.247
			c-0.185,0.54-0.251,1.237-0.162,1.969c-0.969,0.774-1.522,2.016-1.332,3.332l1.058,7.292c-0.089,0.32-0.184,0.628-0.289,0.917
			c-1.126,3.113-3.099,4.458-4.965,4.711c-0.383,0.052-0.652,0.404-0.6,0.786l0.001,0.018l0.435,3.207
			c0.053,0.382,0.404,0.65,0.787,0.599l0.019-0.002l2.202-0.299l0.598,4.412c-1.396,0.661-2.236,1.454-2.117,2.337l0.085,0.623
			l0.002,0.018l0.001,0.018l0.306,2.25c0.111,0.834,0.327,1.588,0.627,2.269l-0.003,0c0.004,0.008,0.008,0.016,0.013,0.023
			c0.004,0.012,0.01,0.026,0.015,0.038l0.003-0.001c0.705,1.568,1.86,2.731,3.265,3.515l-0.241,0.036
			c-0.824,0.119-1.396,0.884-1.276,1.709s0.885,1.395,1.708,1.276l0.864-0.126c0.017,0.188,0.032,0.375,0.049,0.563l6.02-0.791
			l5.873-0.772c-0.044-0.238-0.088-0.474-0.132-0.712l0.929-0.135c0.825-0.12,1.396-0.885,1.276-1.709
			c-0.12-0.825-0.884-1.396-1.709-1.276l-0.112,0.016c1.581-1.623,2.479-3.826,2.112-6.537l-0.042-0.298l-0.264-1.953l-0.002-0.017
			l-0.003-0.018l-0.084-0.623c-0.119-0.878-1.139-1.417-2.661-1.683l-0.599-4.417l2.219-0.302c0.382-0.052,0.65-0.404,0.599-0.786
			l-0.002-0.019l-0.433-3.188L306.193,84.496z"/>
		
			<polygon fill="none" stroke="#000000" stroke-width="0.5" stroke-linecap="round" stroke-linejoin="round" stroke-miterlimit="10" points="
			320.104,258.464 320.102,258.45 301.037,261.035 		"/>
		
			<rect x="320.022" y="257.249" transform="matrix(-0.9909 0.1343 -0.1343 -0.9909 689.5012 467.997)" fill="none" stroke="#000000" stroke-width="0.5" stroke-linecap="round" stroke-linejoin="round" stroke-miterlimit="10" width="17.886" height="0.014"/>
		<path fill="#4B7F70" d="M373.069,328.946l-42.27,6.129l-41.974,6.087l0.001,0.008l-1.163,2.534l-2.066,4.813
			c-0.022,0.038-0.039,0.078-0.052,0.118l-1.228,2.858c-0.02,0.035-0.034,0.07-0.046,0.108l-6.63,15.435
			c-0.021,0.039-0.039,0.079-0.051,0.119l-4.924,11.461c-0.017,0.033-0.032,0.068-0.045,0.104l-3.165,7.367l30.594-4.436
			c0.264-1.083,0.557-2.147,0.913-3.173c2.086-6.008,5.709-11.011,10.286-14.926l0.014-0.014l0.013-0.01
			c0.842-0.719,1.717-1.403,2.62-2.047c0.403-0.29,0.812-0.568,1.226-0.842l0.015-0.009l0.014-0.009l0.016-0.01
			c4.472-2.942,9.571-5.019,14.892-6.174c1.112-0.242,2.235-0.438,3.363-0.598c0.104-0.015,0.207-0.034,0.311-0.048
			c6.334-0.858,13.551-0.183,19.574,1.62l0.188,0.029c0.469,0.153,0.939,0.313,1.403,0.484c1.042,0.381,2.068,0.807,3.071,1.276
			l0.015,0.007l0.016,0.008c0.816,0.383,1.619,0.796,2.405,1.237c1.026,0.576,2.487,1.479,3.52,2.194c0,0,2.643,2.132,3.879,3.351
			c2.068,2.038,3.903,4.384,5.455,7.037l30.319-4.396L373.069,328.946z"/>
		<path fill="#335B4F" d="M382.337,340.398l-9.268-11.452l-42.27,6.129l-41.974,6.087l0.001,0.008l-1.163,2.534l-2.066,4.813
			c-0.022,0.038-0.039,0.078-0.052,0.118l-1.228,2.858c-0.02,0.035-0.034,0.07-0.046,0.108l-1.757,4.089L382.337,340.398z"/>
		<path fill="#4B7F70" d="M345.205,272.897c-0.526-1.366-1.052-2.767-1.577-4.21l0.062-0.403l-21.773,3.157l-20.167,2.924
			c-0.163,2.048-0.346,4.03-0.548,5.951c-0.008,0.035-0.01,0.071-0.01,0.108c-0.187,1.752-0.388,3.451-0.604,5.107
			c-0.76,5.814-1.711,11.081-2.841,16.057l0.003,0.003c-1.27,5.571-2.799,10.929-4.498,16.155l-0.004,0.013l-0.018,0.052
			c-0.601,1.854-1.171,3.519-1.824,5.391l24.538-3.557l0.03-0.363l0.014,0.014c0.141-1.386,0.27-2.765,0.393-4.142
			c0.006-0.032,0.008-0.064,0.009-0.097l0-0.013c0.36-4.084,0.64-8.167,0.823-12.44l0-0.003l0.001-0.014l0.001-0.04l0.001-0.013
			c0.171-4.055,0.256-8.283,0.238-12.849l0.001-0.012l-0.002-0.074c-0.002-0.93-0.01-1.874-0.022-2.833l6.502-0.881l7.882-1.069
			c0.241,0.923,0.484,1.83,0.727,2.722c0.007,0.036,0.017,0.071,0.028,0.107c1.196,4.397,2.402,8.444,3.646,12.3l0.002,0.014
			c0.006,0.029,0.016,0.055,0.026,0.081c1.312,4.065,2.667,7.921,4.099,11.756c0.011,0.041,0.025,0.08,0.043,0.116
			c0.575,1.539,1.065,2.405,1.668,3.948l24.111-3.496C357.926,300.443,351.765,289.932,345.205,272.897z"/>
		<path fill="#335B4F" d="M346.777,276.871c-0.522-1.287-1.046-2.607-1.572-3.974s-1.052-2.768-1.577-4.21l0.062-0.403
			l-21.773,3.157l-20.167,2.924c-0.163,2.049-0.346,4.03-0.548,5.951c-0.008,0.035-0.01,0.071-0.01,0.108
			c-0.126,1.19-0.263,2.348-0.403,3.493L346.777,276.871z"/>
		<polygon fill="#74B5A1" points="283.51,324.382 288.825,341.163 330.799,335.076 373.475,328.884 374.438,310.661 		"/>
		
			<path fill="none" stroke="#000000" stroke-width="0.5" stroke-linecap="round" stroke-linejoin="round" stroke-miterlimit="10" d="
			M294.831,382.118c0,0,5.326-27.861,38.411-32.391c12.639-1.73,26.768-4.748,44.358,20.893"/>
		
			<polygon fill="none" stroke="#000000" stroke-width="0.5" stroke-linecap="round" stroke-linejoin="round" stroke-miterlimit="10" points="
			312.243,338.487 291.638,382.899 276.053,370.734 301.363,361.84 285.05,349.789 		"/>
		
			<polyline fill="none" stroke="#000000" stroke-width="0.5" stroke-linecap="round" stroke-linejoin="round" stroke-miterlimit="10" points="
			269.521,385.996 296.508,372.484 279.491,362.731 305.766,352.688 288.519,340.917 		"/>
		
			<polygon fill="none" stroke="#000000" stroke-width="0.5" stroke-linecap="round" stroke-linejoin="round" stroke-miterlimit="10" points="
			347.558,333.076 380.571,369.274 391.799,353.001 364.987,352.093 376.944,335.71 		"/>
		
			<polyline fill="none" stroke="#000000" stroke-width="0.5" stroke-linecap="round" stroke-linejoin="round" stroke-miterlimit="10" points="
			403.312,366.703 372.806,360.795 386.123,346.395 358.046,344.678 372.868,329.199 		"/>
		
			<path fill="none" stroke="#000000" stroke-width="0.5" stroke-linecap="round" stroke-linejoin="round" stroke-miterlimit="10" d="
			M291.405,323.202l25.268-11.621l-19.585-7.213l20.324-8.47c0,0-17.586-3.672-17.724-4.268c-0.138-0.596,17.838-5.158,17.838-5.158
			l-16.531-4.285l14.908-6.31l-13.49-1.547"/>
		
			<path fill="none" stroke="#000000" stroke-width="0.5" stroke-linecap="round" stroke-linejoin="round" stroke-miterlimit="10" d="
			M315.922,319.249l-21.149-6.388l22.246-10.045l-18.301-5.817l18.737-6.112c0,0-16.999-3.71-16.975-4.565
			c0.024-0.854,16.054-6.323,16.054-6.323l-15.064-2.396l14.816-5.121"/>
		
			<path fill="none" stroke="#000000" stroke-width="0.5" stroke-linecap="round" stroke-linejoin="round" stroke-miterlimit="10" d="
			M365.688,311.822l-25.823-3.793l15.939-12.656l-21.339-2.086c0,0,15.681-8.769,15.633-9.379
			c-0.047-0.61-18.564,0.419-18.564,0.419l14.49-9.038l-16.113-1.557l12.408-5.515"/>
		
			<path fill="none" stroke="#000000" stroke-width="0.5" stroke-linecap="round" stroke-linejoin="round" stroke-miterlimit="10" d="
			M342.877,315.119l17.089-12.247l-23.055-3.104l15.131-10.939l-19.12-0.312c0,0,15.109-8.629,14.829-9.438
			c-0.279-0.808-17.21-1.226-17.21-1.226l13.657-6.796l-15.671-0.45"/>
		
			<path fill="none" stroke="#000000" stroke-width="0.5" stroke-linecap="round" stroke-linejoin="round" stroke-miterlimit="10" d="
			M301.018,261.291c1.766-0.271,16.894-11.624,16.894-11.624l-16.473-7.792l13.906-12.899l-14.454-7.171l11.748-10.487
			l-12.939-7.569l10.234-10.089l-10.485-6.5l8.729-8.893l-10.079-5.972l8.005-7.566l-8.868-6.477l7.202-8.329l-8.752-4.676
			l6.858-7.684l-7.625-4.555l6.591-6.13l-7.155-3.741l5.802-5.088l-6.666-3.681l5.223-5.736"/>
		
			<path fill="none" stroke="#000000" stroke-width="0.5" stroke-linecap="round" stroke-linejoin="round" stroke-miterlimit="10" d="
			M319.853,258.405l-18.598-7.212l15.803-11.034l-15.792-8.541l12.727-11.472l-13.527-7.667l10.822-9.991l-11.707-7.544l9.86-8.438
			c0,0-10.68-6.798-10.77-7.386s8.516-7.329,8.516-7.329l-9.556-6.867l7.89-7.938l-8.803-5.58l5.642-7.188l-6.743-5.705l4.939-6.067
			l-6.318-4.547l5.962-5.639l-5.928-3.309l5.165-5.61l-6.019-3.897"/>
		
			<path fill="none" stroke="#000000" stroke-width="0.5" stroke-linecap="round" stroke-linejoin="round" stroke-miterlimit="10" d="
			M298.738,108.927l7.171,3.422l-5.753,5.701l7.106,3.128l-5.753,5.701l7.694,3.038l-6.66,7.647l8.554,4.713l-6.66,7.647
			l9.821,5.122l-8.155,9.684l10.031,4.793l-7.957,8.745l10.775,5.913l-8.431,9.391l12.784,6.619l-10.667,11.129l14.522,6.551
			l-11.817,11.106l16.848,8.33l-14.28,12.361c0,0,18.289,6.409,20.061,6.18"/>
		
			<path fill="none" stroke="#000000" stroke-width="0.5" stroke-linecap="round" stroke-linejoin="round" stroke-miterlimit="10" d="
			M319.075,258.29l15.874-12.08l-17.649-6.303l12.219-12.503l-15.405-7.499l10.875-11.113l-13.165-6.604l9.16-10.491l-11.543-5.189
			c0,0,8.112-9.677,8.035-10.268c-0.076-0.591-10.29-4.447-10.29-4.447l8.245-9.095l-9.911-5.71l7.068-8.914l-8.322-4.35l5.839-7.92
			l-7.366-3.891l5.743-6.704l-7.041-3.335l5.778-4.906l-6.923-3.953l4.982-4.786"/>
		
			<line fill="none" stroke="#000000" stroke-width="0.5" stroke-linecap="round" stroke-linejoin="round" stroke-miterlimit="10" x1="286.271" y1="333.102" x2="374.026" y2="319.657"/>
		
			<line fill="none" stroke="#000000" stroke-width="0.5" stroke-linecap="round" stroke-linejoin="round" stroke-miterlimit="10" x1="287.603" y1="323.785" x2="288.966" y2="332.688"/>
		
			<line fill="none" stroke="#000000" stroke-width="0.5" stroke-linecap="round" stroke-linejoin="round" stroke-miterlimit="10" x1="293.488" y1="322.883" x2="294.853" y2="331.787"/>
		
			<line fill="none" stroke="#000000" stroke-width="0.5" stroke-linecap="round" stroke-linejoin="round" stroke-miterlimit="10" x1="299.374" y1="321.981" x2="300.738" y2="330.885"/>
		
			<line fill="none" stroke="#000000" stroke-width="0.5" stroke-linecap="round" stroke-linejoin="round" stroke-miterlimit="10" x1="305.26" y1="321.08" x2="306.624" y2="329.983"/>
		
			<line fill="none" stroke="#000000" stroke-width="0.5" stroke-linecap="round" stroke-linejoin="round" stroke-miterlimit="10" x1="311.146" y1="320.178" x2="312.51" y2="329.082"/>
		
			<line fill="none" stroke="#000000" stroke-width="0.5" stroke-linecap="round" stroke-linejoin="round" stroke-miterlimit="10" x1="317.032" y1="319.276" x2="318.396" y2="328.18"/>
		
			<line fill="none" stroke="#000000" stroke-width="0.5" stroke-linecap="round" stroke-linejoin="round" stroke-miterlimit="10" x1="322.918" y1="318.375" x2="324.282" y2="327.278"/>
		
			<line fill="none" stroke="#000000" stroke-width="0.5" stroke-linecap="round" stroke-linejoin="round" stroke-miterlimit="10" x1="328.804" y1="317.473" x2="330.168" y2="326.376"/>
		
			<line fill="none" stroke="#000000" stroke-width="0.5" stroke-linecap="round" stroke-linejoin="round" stroke-miterlimit="10" x1="334.689" y1="316.571" x2="336.054" y2="325.475"/>
		
			<line fill="none" stroke="#000000" stroke-width="0.5" stroke-linecap="round" stroke-linejoin="round" stroke-miterlimit="10" x1="340.576" y1="315.669" x2="341.939" y2="324.573"/>
		
			<line fill="none" stroke="#000000" stroke-width="0.5" stroke-linecap="round" stroke-linejoin="round" stroke-miterlimit="10" x1="346.461" y1="314.767" x2="347.826" y2="323.671"/>
		
			<line fill="none" stroke="#000000" stroke-width="0.5" stroke-linecap="round" stroke-linejoin="round" stroke-miterlimit="10" x1="352.347" y1="313.865" x2="353.711" y2="322.769"/>
		
			<line fill="none" stroke="#000000" stroke-width="0.5" stroke-linecap="round" stroke-linejoin="round" stroke-miterlimit="10" x1="358.233" y1="312.964" x2="359.598" y2="321.867"/>
		
			<line fill="none" stroke="#000000" stroke-width="0.5" stroke-linecap="round" stroke-linejoin="round" stroke-miterlimit="10" x1="364.119" y1="312.062" x2="365.483" y2="320.966"/>
		
			<line fill="none" stroke="#000000" stroke-width="0.5" stroke-linecap="round" stroke-linejoin="round" stroke-miterlimit="10" x1="370.005" y1="311.16" x2="371.369" y2="320.064"/>
		<polygon fill="#335B4F" points="303.822,88.874 289.354,91.091 289.834,94.632 304.302,92.415 		"/>
		<path fill="#335B4F" d="M289.761,104.281c0.644,0.826,1.442,1.489,2.346,1.994l-0.241,0.036c-0.138,0.02-0.266,0.064-0.388,0.118
			l13.931-2.134c0.731-0.765,1.308-1.657,1.679-2.667L289.761,104.281z"/>
		<polygon fill="#74B5A1" points="344.895,254.01 320.014,257.875 300.679,261.042 295.678,261.792 301.75,274.365 321.916,271.441 
			343.689,268.284 		"/>
		
			<line fill="none" stroke="#000000" stroke-width="0.5" stroke-linecap="round" stroke-linejoin="round" stroke-miterlimit="10" x1="298.89" y1="268.443" x2="344.322" y2="261.482"/>
		
			<line fill="none" stroke="#000000" stroke-width="0.5" stroke-linecap="round" stroke-linejoin="round" stroke-miterlimit="10" x1="299.512" y1="261.287" x2="300.568" y2="268.186"/>
		
			<line fill="none" stroke="#000000" stroke-width="0.5" stroke-linecap="round" stroke-linejoin="round" stroke-miterlimit="10" x1="305.397" y1="260.385" x2="306.454" y2="267.284"/>
		
			<line fill="none" stroke="#000000" stroke-width="0.5" stroke-linecap="round" stroke-linejoin="round" stroke-miterlimit="10" x1="311.283" y1="259.483" x2="312.34" y2="266.382"/>
		
			<line fill="none" stroke="#000000" stroke-width="0.5" stroke-linecap="round" stroke-linejoin="round" stroke-miterlimit="10" x1="317.169" y1="258.582" x2="318.226" y2="265.48"/>
		
			<line fill="none" stroke="#000000" stroke-width="0.5" stroke-linecap="round" stroke-linejoin="round" stroke-miterlimit="10" x1="323.055" y1="257.68" x2="324.112" y2="264.579"/>
		
			<line fill="none" stroke="#000000" stroke-width="0.5" stroke-linecap="round" stroke-linejoin="round" stroke-miterlimit="10" x1="328.941" y1="256.778" x2="329.998" y2="263.677"/>
		
			<line fill="none" stroke="#000000" stroke-width="0.5" stroke-linecap="round" stroke-linejoin="round" stroke-miterlimit="10" x1="334.827" y1="255.876" x2="335.884" y2="262.775"/>
		
			<line fill="none" stroke="#000000" stroke-width="0.5" stroke-linecap="round" stroke-linejoin="round" stroke-miterlimit="10" x1="340.713" y1="254.975" x2="341.77" y2="261.873"/>
	</g>
	<path fill="#FCFEFB" d="M554.319,354.8c223.738-7.934,387.516,46.415,387.516,46.415s378.699,58.825,366.534,256.928
		c-12.166,198.103-359.291,312.809-600.232,236.338c-240.942-76.471-84.765-165.739-357.505-248.845
		C77.892,562.529-94.01,377.79,554.319,354.8z"/>
	<path fill="#E0F8FC" d="M635.48,401.417c0,0-404.102-20.092-319.962,51.872c84.14,71.964,87.514,19.329,141.324,71.145
		c53.811,51.816-63.75,116.901,92.525,167.605c156.275,50.703-11.77,165.285,466.733,0
		C1494.604,526.753,635.48,401.417,635.48,401.417z"/>
	<path fill="#C7EEF2" d="M505.094,408.771c-457.584-86.037-79.86,310.678,219.16,177.029
		C970.947,475.54,574.313,421.786,505.094,408.771z"/>
	<g>
		<path fill="#2B4E78" d="M493.032,233.806c0,0-132.708,53.729,3.074,187.834c0,0,60.796,3.357,12.724-112.161
			C501.405,291.636,486.356,267.881,493.032,233.806z"/>
		<path fill="none" stroke="#09A4D0" stroke-miterlimit="10" d="M496.106,421.64c0,0-2.407-39.014-20.225-73.55
			c-17.819-34.537-14.871-72.875,17.151-114.284"/>
		<path fill="none" stroke="#09A4D0" stroke-miterlimit="10" d="M523.231,403.933c0,0-7.864-17.013-34.924-24.029"/>
		<path fill="none" stroke="#09A4D0" stroke-miterlimit="10" d="M471.846,395.173c0,0,1.611-20.656,13.945-23.317"/>
		<path fill="none" stroke="#09A4D0" stroke-miterlimit="10" d="M472.498,340.876c0,0,35.926-10.925,52.246,17.835"/>
		<path fill="none" stroke="#09A4D0" stroke-miterlimit="10" d="M451.099,365.441c0,0,0.029-31.031,18.15-33.307"/>
		<path fill="none" stroke="#09A4D0" stroke-miterlimit="10" d="M465.025,306.65c0,0,31.136-19.15,43.805,2.829"/>
		<path fill="none" stroke="#09A4D0" stroke-miterlimit="10" d="M434.965,311.726c0,0,14.419-16.515,30.365-14.094"/>
		<path fill="none" stroke="#09A4D0" stroke-miterlimit="10" d="M472.019,269.772c0,0,12.888-9.581,22.964,5.646"/>
		<path fill="none" stroke="#09A4D0" stroke-miterlimit="10" d="M445.181,274.717c0,0,17.475-18.426,30.053-12.341"/>
	</g>
	<g>
		<path fill="#2B4E78" d="M766.428,223.947c0,0-105.393,42.671,2.441,149.173c0,0,48.283,2.666,10.104-89.075
			C773.077,269.874,761.126,251.009,766.428,223.947z"/>
		<path fill="none" stroke="#09A4D0" stroke-miterlimit="10" d="M768.869,373.12c0,0-1.911-30.984-16.062-58.412
			c-14.15-27.428-11.81-57.875,13.621-90.761"/>
		<path fill="none" stroke="#09A4D0" stroke-miterlimit="10" d="M790.411,359.058c0,0-6.245-13.511-27.735-19.083"/>
		<path fill="none" stroke="#09A4D0" stroke-miterlimit="10" d="M749.602,352.1c0,0,1.28-16.404,11.075-18.518"/>
		<path fill="none" stroke="#09A4D0" stroke-miterlimit="10" d="M750.12,308.979c0,0,28.531-8.676,41.492,14.165"/>
		<path fill="none" stroke="#09A4D0" stroke-miterlimit="10" d="M733.126,328.488c0,0,0.022-24.644,14.414-26.452"/>
		<path fill="none" stroke="#09A4D0" stroke-miterlimit="10" d="M744.186,281.798c0,0,24.728-15.208,34.788,2.247"/>
		<path fill="none" stroke="#09A4D0" stroke-miterlimit="10" d="M720.312,285.829c0,0,11.451-13.116,24.114-11.193"/>
		<path fill="none" stroke="#09A4D0" stroke-miterlimit="10" d="M749.739,252.51c0,0,10.235-7.608,18.237,4.484"/>
		<path fill="none" stroke="#09A4D0" stroke-miterlimit="10" d="M728.426,256.438c0,0,13.877-14.634,23.867-9.801"/>
	</g>
	<path fill="#09A4D0" d="M452.831,380.961c-10.718-2.13-20.91-6.965-27.287-15.648c-3.834,4.917-5.774,11.021-7.363,17.05
		c-1.67,6.339-2.992,12.881-3.854,19.483c2.486,2.241,4.584,4.05,5.292,4.692c7.132,6.471,18.43,16.019,27.697,19.021
		c-4.975,1.47-9.863-2.111-14.834-3.596c-3.521-1.052-7.256-1.044-10.929-1.171c-2.782-0.096-5.56-0.284-8.331-0.543
		c0.112,7.053,0.893,14.025,2.477,20.751c7.087,1.628,14.402,2.27,21.663,1.851c3.456-0.2,8.013-1.185,10.951,0.434
		c-2.764,5.747-12.544,6.643-18.161,7.359c-3.668,0.468-7.335,0.937-11.003,1.404c1.94,4.885,4.4,9.569,7.452,13.974
		c0.928,1.339,1.931,2.627,2.972,3.884c5.011-1.048,9.963-2.371,14.814-4.016c4.279-1.451,15.697-8.66,19.28-6.284
		c-1.754,1.866-3.884,3.4-5.919,5.015c-1.43,1.134-2.861,2.269-4.354,3.319c-2.358,1.658-4.861,3.098-7.359,4.535
		c-2.817,1.621-5.635,3.241-8.452,4.862c8.716,5.967,19.858,7.648,30.42,6.762c17.464-1.466,34.232-9.648,46.372-22.25
		c6.767-7.023,9.896-8.589,18.77-12.441c7.654-3.323,15.217-7.9,19.198-15.534c1.814-3.478,2.75-7.371,3.049-11.282
		c0.884-11.577-4.049-23.452-12.875-30.995c-1.83-1.563-3.792-2.917-5.848-4.103c-7.789,11.707-20.092,30.718-24.162,32.782
		c0.763-9.518,4.084-19.341,7.758-28.113c1.325-3.164,2.787-6.377,3.76-9.661c-6.649-1.657-13.695-2.2-20.539-2.102
		c-0.36,0.005-0.719,0.026-1.078,0.035c-1.448,10.424-2.885,20.849-4.364,31.268c-0.409,2.881-0.421,10.909-5.611,8.868
		c-2.455-0.965-3.01-12.87-3.483-15.464c-1.434-7.843-2.869-15.707-3.862-23.613c-7.687,0.605-15.368,1.146-23.053,0.665
		c-0.459-0.029-0.922-0.074-1.383-0.111c-0.457,6.047-0.562,12.541-0.703,13.589C457.229,391.026,454.932,386.034,452.831,380.961z
		 M515.509,442.615c2.104-3.27,5.67-5.38,9.396-6.489s7.652-1.32,11.535-1.523c0.854-0.045,1.801-0.06,2.45,0.497
		c0.961,0.823,0.66,2.49-0.271,3.347s-2.247,1.12-3.491,1.348l-1.563-0.454c-5.144,2.789-10.501,5.182-16.01,7.152
		c-0.507,0.181-1.049,0.361-1.573,0.238C514.401,446.357,514.631,443.981,515.509,442.615z M442.937,403.621
		c0.776,2.109,0.548,4.754-1.143,6.235l-1.888-0.625c-6.155-3.297-11.603-7.905-15.876-13.426c1.899-2.025,5.217-1.311,7.837-0.396
		C436.358,396.974,441.294,399.158,442.937,403.621z M466.963,451.25l-2.083,0.904c-5.59,2.492-11.546,4.16-17.617,4.935
		c-1.084-0.857-0.368-2.631,0.622-3.596c3.365-3.279,8.516-3.667,13.209-3.869C463.206,449.534,465.656,449.591,466.963,451.25z
		 M484.683,467.609c9.813-4.167,7.237,2.639,0.01,5.761c-8.228,3.555-17.314,5.349-26.267,5.385
		C467.179,475.04,475.931,471.324,484.683,467.609z"/>
	<g>
		<path fill="#84C571" d="M1082.111,658.061c0,0,9.446-10.615,18.721-34.838c8.193-21.398,54.253-53.492,106.183-59.81
			c0,0,12.578,83.552-91.417,90.615C1107.186,654.6,1091.884,651.55,1082.111,658.061z"/>
		<path fill="none" stroke="#6EA04E" stroke-miterlimit="10" d="M1204.399,565.788c0,0-55.633,56.269-117.859,89.539"/>
		<path fill="none" stroke="#6EA04E" stroke-miterlimit="10" d="M1204.306,583.26c0,0-13.707,4.84-24.076,4.996"/>
		<path fill="none" stroke="#6EA04E" stroke-miterlimit="10" d="M1201.642,596.606c0,0-26.364,6.9-38.191,6.354"/>
		<path fill="none" stroke="#6EA04E" stroke-miterlimit="10" d="M1193.248,615.273c0,0-29.014,8.269-45.893,0.063"/>
		<path fill="none" stroke="#6EA04E" stroke-miterlimit="10" d="M1176.507,633.236c0,0-33.938,3.725-41.984-8.318"/>
		<path fill="none" stroke="#6EA04E" stroke-miterlimit="10" d="M1154.16,645.068c0,0-20.018,6.34-35.822-8.896"/>
		<path fill="none" stroke="#6EA04E" stroke-miterlimit="10" d="M1122.479,651.879c0,0-9.555,0.105-15.913-8.135"/>
		<path fill="none" stroke="#6EA04E" stroke-miterlimit="10" d="M1185.356,569.326c0,0-5.488,11.019-3.829,17.784"/>
		<path fill="none" stroke="#6EA04E" stroke-miterlimit="10" d="M1160.155,577.731c0,0-2.407,15.791,4.225,24.034"/>
		<path fill="none" stroke="#6EA04E" stroke-miterlimit="10" d="M1145.397,584.76c0,0-3.815,18.771,3.296,29.545"/>
		<path fill="none" stroke="#6EA04E" stroke-miterlimit="10" d="M1124.773,597.956c0,0,2.623,19.218,10.833,26.174"/>
		<path fill="none" stroke="#6EA04E" stroke-miterlimit="10" d="M1115.509,605.877c0,0-3.06,18.746,4.217,29.368"/>
		<path fill="none" stroke="#6EA04E" stroke-miterlimit="10" d="M1102.992,622.907c0,0-1.908,9.245,4.796,20.076"/>
	</g>
	<g>
		<path fill="none" stroke="#244412" stroke-miterlimit="10" d="M1142.658,516.585c0,0,5.256,68.785-51.841,149.585"/>
		<path fill="#4D7A30" d="M1142.783,520.784c0,0,20.68-32.227,6.369-56.051C1149.152,464.733,1130.37,500.963,1142.783,520.784z"/>
		<path fill="#5C903C" d="M1140.437,548.737c0,0,11.148-32.547,41.012-38.259C1181.448,510.479,1165.581,539.275,1140.437,548.737z"
			/>
		<path fill="#6FA54C" d="M1112.507,518.284c0,0,30.224,9.825,26.908,36.421C1139.415,554.705,1111.236,540.394,1112.507,518.284z"
			/>
		<path fill="#4D7A30" d="M1175.447,546.912c0,0-24.167,2.401-42.422,34.083C1133.025,580.995,1160.585,581.64,1175.447,546.912z"/>
		<path fill="#5C903C" d="M1108.894,546.013c0,0,31.11,20.299,20.375,46.511C1129.269,592.523,1101.711,567.104,1108.894,546.013z"
			/>
		<path fill="#5C903C" d="M1163.141,582.48c0,0-21.858,0.206-41.349,29.05C1121.792,611.53,1141.483,616.284,1163.141,582.48z"/>
		<path fill="#4D7A30" d="M1104.463,576.446c0,0,27.225,22.901,12.052,48.389C1116.515,624.835,1094.883,605.917,1104.463,576.446z"
			/>
	</g>
	<g>
		<g enable-background="new    ">
			<g>
				<polygon fill="#BF7C3A" points="1091.506,668.185 1077.386,658.445 1081.127,570.604 1095.247,580.345 				"/>
			</g>
			<path fill="#A3843E" d="M1142.075,433.59c0.285,0.051,0.562,0.114,0.828,0.194c0.032,0.01,0.066,0.016,0.098,0.025
				c0.296,0.094,0.578,0.21,0.85,0.34c0.072,0.034,0.142,0.072,0.212,0.108c0.256,0.133,0.506,0.275,0.739,0.439l-14.12-9.74
				c-0.15-0.105-0.305-0.205-0.464-0.297c-0.089-0.052-0.185-0.094-0.276-0.142c-0.07-0.037-0.139-0.074-0.21-0.108
				c-0.048-0.023-0.094-0.051-0.143-0.073c-0.221-0.099-0.449-0.186-0.685-0.261c-0.008-0.002-0.016-0.003-0.022-0.006
				c-0.033-0.01-0.068-0.016-0.101-0.026c-0.21-0.063-0.421-0.123-0.642-0.167c-0.06-0.012-0.123-0.016-0.184-0.026
				c-0.114-0.02-0.231-0.034-0.349-0.049c-0.119-0.016-0.231-0.04-0.353-0.05c-0.182-0.016-0.367-0.025-0.556-0.029l14.12,9.74
				c0.313,0.006,0.612,0.04,0.909,0.079C1141.845,433.556,1141.962,433.57,1142.075,433.59z"/>
			<g>
				<polygon fill="#9A7D3B" points="1094.561,575.014 1080.44,565.274 1126.699,423.722 1140.819,433.461 				"/>
			</g>
			<g>
				<polygon fill="#D7AE52" points="963.093,621.998 948.973,612.259 1080.44,565.274 1094.561,575.014 				"/>
			</g>
			<g>
				<polygon fill="#BF7C3A" points="947.766,719.555 933.646,709.815 937.387,621.976 951.507,631.715 				"/>
			</g>
			<g>
				<polygon fill="#D7AE52" points="951.748,626.053 937.628,616.312 948.973,612.259 963.093,621.998 				"/>
			</g>
			<g>
				<polygon fill="#BF7C3A" points="951.507,631.715 937.387,621.976 937.628,616.312 951.748,626.053 				"/>
			</g>
			<g>
				<path fill="#DB9249" d="M1140.819,433.461c5.82,0.111,8.655,5.977,6.323,13.102l-40.275,123.273l-0.034,0.791l-0.241,5.662
					l-3.74,87.84l-11.346,4.055l3.741-87.84L962.852,627.66l-3.74,87.841l-11.346,4.054l3.741-87.84l0.241-5.662l11.345-4.055
					l131.468-46.984L1140.819,433.461z"/>
			</g>
		</g>
		<g enable-background="new    ">
			<g>
				<polygon fill="#866D33" points="789.358,453.289 775.238,443.549 778.979,355.709 793.1,365.449 				"/>
			</g>
			<path fill="#A3843E" d="M839.928,218.694c0.284,0.051,0.562,0.114,0.828,0.194c0.031,0.01,0.066,0.016,0.098,0.025
				c0.296,0.094,0.577,0.21,0.849,0.34c0.072,0.034,0.142,0.072,0.212,0.108c0.256,0.134,0.507,0.275,0.74,0.439l-14.121-9.74
				c-0.149-0.105-0.304-0.205-0.464-0.297c-0.089-0.052-0.184-0.094-0.275-0.142c-0.07-0.037-0.14-0.074-0.211-0.108
				c-0.048-0.023-0.093-0.051-0.142-0.073c-0.221-0.099-0.449-0.186-0.686-0.261c-0.008-0.002-0.015-0.003-0.021-0.006
				c-0.033-0.01-0.069-0.016-0.102-0.026c-0.21-0.063-0.421-0.123-0.642-0.167c-0.059-0.012-0.123-0.016-0.184-0.026
				c-0.114-0.02-0.231-0.034-0.349-0.049c-0.118-0.016-0.23-0.04-0.353-0.05c-0.182-0.016-0.366-0.025-0.556-0.029l14.12,9.74
				c0.314,0.006,0.613,0.04,0.909,0.079C839.697,218.66,839.814,218.674,839.928,218.694z"/>
			<g>
				<polygon fill="#9A7D3B" points="792.413,360.118 778.293,350.378 824.551,208.826 838.672,218.565 				"/>
			</g>
			<g>
				<polygon fill="#D7AE52" points="660.945,407.102 646.825,397.362 778.293,350.378 792.413,360.118 				"/>
			</g>
			<g>
				<polygon fill="#866D33" points="645.618,504.659 631.498,494.919 635.239,407.079 649.359,416.819 				"/>
			</g>
			<g>
				<polygon fill="#D7AE52" points="649.6,411.157 635.48,401.417 646.825,397.362 660.945,407.102 				"/>
			</g>
			<g>
				<polygon fill="#866D33" points="649.359,416.819 635.239,407.079 635.48,401.417 649.6,411.157 				"/>
			</g>
			<g>
				<path fill="#CAA44D" d="M838.672,218.565c5.82,0.11,8.654,5.977,6.322,13.102l-40.275,123.274l-0.033,0.791l-0.241,5.662
					l-3.741,87.84l-11.345,4.055l3.741-87.84l-132.396,47.316l-3.741,87.84l-11.345,4.055l3.741-87.84l0.241-5.662l11.345-4.055
					l131.468-46.984L838.672,218.565z"/>
			</g>
		</g>
		<g>
			<g enable-background="new    ">
				<g>
					<polygon fill="#866D33" points="1078.293,595.445 736.229,353.768 736.722,342.186 1078.786,583.863 					"/>
				</g>
				<g>
					<polygon fill="#FFCF61" points="1078.786,583.863 736.722,342.186 771.08,329.907 1113.145,571.584 					"/>
				</g>
				<g>
					<polygon fill="#EDA454" points="1113.145,571.584 1112.651,583.166 1078.293,595.445 1078.786,583.863 					"/>
				</g>
			</g>
			<g enable-background="new    ">
				<g>
					<polygon fill="#CAA44D" points="1122.027,527.539 779.963,285.862 786.99,285.975 1129.055,527.652 					"/>
				</g>
				<g>
					<polygon fill="#FFB762" points="1110.259,563.771 768.194,322.094 779.963,285.862 1122.027,527.539 					"/>
				</g>
				<g>
					<polygon fill="#EDA454" points="1122.027,527.539 1129.055,527.652 1117.286,563.885 1110.259,563.771 					"/>
				</g>
			</g>
			<g enable-background="new    ">
				<g>
					<polygon fill="#CAA44D" points="1136.326,483.83 794.263,242.152 801.29,242.266 1143.354,483.943 					"/>
				</g>
				<g>
					<polygon fill="#FFB762" points="1124.559,520.062 782.494,278.385 794.263,242.152 1136.326,483.83 					"/>
				</g>
				<g>
					<polygon fill="#EDA454" points="1136.326,483.83 1143.354,483.943 1131.586,520.176 1124.559,520.062 					"/>
				</g>
			</g>
			<g>
				<polygon fill="#FFB762" points="1138.857,476.354 796.793,234.676 805.765,207.047 1147.829,448.724 				"/>
			</g>
			<path fill="#FFCF61" d="M1149.047,446.056c1.65-2.971,5.071-5.879,8.615-5.824c-4.646-3.269-27.112-19.076-33.699-23.711
				c-0.649-0.457-1.321-1.083-2.036-1.433c-1.551-0.76-310.139-215.568-311.361-214.681c-2.084,1.513-3.69,3.681-4.604,6.084
				c-0.304,0.8,0.17,0.814,0.824,1.275c6.105,4.296,340.035,240.505,340.759,240.759c0.097,0.034,0.199,0.139,0.284,0.2
				C1148.131,447.794,1148.546,446.896,1149.047,446.056z"/>
			<g>
				<path fill="#EDA454" d="M1155.213,440.665c0.818-0.293,1.645-0.446,2.449-0.434l-11.776,36.227l-7.028-0.104l8.972-27.629
					C1149.053,444.956,1152.076,441.786,1155.213,440.665z"/>
			</g>
			<g enable-background="new    ">
				<g>
					<polygon fill="#866D33" points="1040.309,609.021 698.245,367.343 698.738,355.761 1040.803,597.438 					"/>
				</g>
				<g>
					<polygon fill="#FFCF61" points="1040.803,597.438 698.738,355.761 733.097,343.482 1075.161,585.159 					"/>
				</g>
				<g>
					<polygon fill="#EDA454" points="1075.161,585.159 1074.668,596.741 1040.309,609.021 1040.803,597.438 					"/>
				</g>
			</g>
			<g enable-background="new    ">
				<g>
					<polygon fill="#866D33" points="1002.325,622.595 660.261,380.918 660.754,369.336 1002.818,611.013 					"/>
				</g>
				<g>
					<polygon fill="#FFCF61" points="1002.818,611.013 660.754,369.336 695.112,357.057 1037.177,598.734 					"/>
				</g>
				<g>
					<polygon fill="#EDA454" points="1037.177,598.734 1036.684,610.316 1002.325,622.595 1002.818,611.013 					"/>
				</g>
			</g>
			<g enable-background="new    ">
				<g>
					<polygon fill="#FFCF61" points="972.562,621.826 630.498,380.149 657.128,370.631 999.192,612.309 					"/>
				</g>
				<path fill="#FFB762" d="M964.967,630.225c1.128-3.619,3.956-7.1,7.596-8.398c-4.964-3.492-334.16-236.116-340.745-240.749
					c-0.312-0.219-0.929-0.865-1.318-0.927c-0.434-0.07-1.478,0.675-1.85,0.901c-0.572,0.349-1.103,0.752-1.609,1.19
					c-0.963,0.833-1.792,1.804-2.495,2.863c-1.413,2.13-2.058,4.455-2.167,6.991c-0.023,0.549-0.353,1.913-0.099,2.399
					c0.057,0.109,0.292,0.189,0.383,0.27c1.967,1.748,340.574,240.879,341.375,241.192c0.105,0.041,0.21,0.147,0.303,0.213
					C964.426,634.181,964.375,632.146,964.967,630.225z"/>
				<g>
					<path fill="#EDA454" d="M999.192,612.309l-0.493,11.582l-34.358,12.279l0.138-3.235c0.196-4.605,3.812-9.582,8.084-11.108
						L999.192,612.309z"/>
				</g>
			</g>
		</g>
	</g>
	<g>
		<g>
			<g>
				<path fill="#D35050" d="M682.232,573.01c3.182-1.137,5.638,0.724,5.492,4.16c-0.146,3.437-2.839,7.138-6.021,8.275
					c-3.181,1.137-5.638-0.725-5.492-4.16C676.357,577.849,679.051,574.146,682.232,573.01z"/>
			</g>
			<g>
				<path fill="#FF6160" d="M682.396,569.158c5.15-1.841,9.131,1.175,8.895,6.737c-0.236,5.546-4.602,11.545-9.751,13.386
					c-5.15,1.84-9.117-1.181-8.88-6.727C672.896,576.992,677.247,570.998,682.396,569.158z M681.703,585.445
					c3.182-1.138,5.875-4.839,6.021-8.275c0.146-3.437-2.31-5.297-5.492-4.16c-3.182,1.138-5.875,4.839-6.021,8.275
					S678.521,586.582,681.703,585.445"/>
			</g>
			<g enable-background="new    ">
				<g>
					<polygon fill="#A83D3D" points="611.926,614.16 603.934,608.637 611.095,586.261 619.087,591.783 					"/>
				</g>
				<g>
					<polygon fill="#D7AE52" points="619.087,591.783 611.095,586.261 625.894,580.972 633.886,586.495 					"/>
				</g>
				<g>
					<polygon fill="#D35050" points="633.886,586.495 619.325,611.516 611.926,614.16 619.087,591.783 					"/>
				</g>
			</g>
			<g enable-background="new    ">
				<g>
					<polygon fill="#A83D3D" points="495.382,540.18 487.39,534.657 494.552,512.281 502.544,517.804 					"/>
				</g>
				<g>
					<polygon fill="#D7AE52" points="502.544,517.804 494.552,512.281 509.351,506.992 517.342,512.516 					"/>
				</g>
				<g>
					<polygon fill="#D35050" points="517.342,512.516 502.782,537.536 495.382,540.18 502.544,517.804 					"/>
				</g>
			</g>
			<path fill="#A83D3D" d="M673.525,578.479c1.899-5.091,9.218-13.042,15.187-8.839c-8.52-5.994-7.784-5.65-19.225-13.7
				c-0.868-0.61-1.718-1.269-2.612-1.838c-3.614-2.3-8.006-0.327-10.875,2.321c-4.699,4.339-7.963,13.068-1.762,17.432
				c10.354,7.285,10.339,7.691,20.47,14.576c0.177,0.12,0.351,0.247,0.526,0.37C671.98,586.512,672.3,581.774,673.525,578.479z"/>
		</g>
		<g>
			<g enable-background="new    ">
				<g>
					<polygon fill="#D35050" points="673.345,319.949 663.236,312.946 666.217,242.939 676.326,249.942 					"/>
				</g>
				<g>
					<polygon fill="#D7AE52" points="676.326,249.942 666.217,242.939 677.183,239.02 687.292,246.022 					"/>
				</g>
				<g>
					<polygon fill="#F45D5D" points="687.292,246.022 684.311,316.03 673.345,319.949 676.326,249.942 					"/>
				</g>
			</g>
			<g enable-background="new    ">
				<g>
					<polygon fill="#D35050" points="619.28,282.564 609.171,275.562 612.152,205.554 622.261,212.557 					"/>
				</g>
				<g>
					<polygon fill="#D7AE52" points="622.261,212.557 612.152,205.554 623.118,201.635 633.227,208.638 					"/>
				</g>
				<g>
					<polygon fill="#F45D5D" points="633.227,208.638 630.246,278.646 619.28,282.564 622.261,212.557 					"/>
				</g>
			</g>
			<path fill="#FF8A8A" d="M683.841,232.666c1.518-0.173,3.056,0.067,4.329,0.963c-7.695-5.415-46.021-32.381-57.488-40.45
				c-3.548-2.497-6.75-5.72-11.452-4.04c7.208,5.072,14.416,10.143,21.624,15.215c11.293,7.946,22.587,15.893,33.88,23.838
				c1.772,1.247,3.543,2.493,5.315,3.74c0.408,0.287,0.906,0.794,1.376,0.968C682.244,233.204,682.879,232.775,683.841,232.666z"/>
			<path fill="#FF6160" d="M672.152,244.603c1.065-4.9,4.812-9.746,9.611-11.463c-8.299-5.839-47.864-33.678-59.348-41.759
				c-0.819-0.576-2.035-1.854-3.014-2.12c-0.988-0.268-2.67,1.108-3.478,1.7c-1.593,1.166-2.948,2.656-4.024,4.309
				c-2.217,3.407-2.54,6.947-2.708,10.887c-0.069,1.631-0.037,1.468,1.204,2.341c10.506,7.393,43.886,30.88,50.069,35.231
				c2.271,1.598,4.542,3.196,6.813,4.794c1.187,0.835,2.517,2.148,3.858,2.715c0.184,0.078,0.361,0.254,0.527,0.371
				C671.745,249.712,671.285,246.337,672.152,244.603z"/>
			<g>
				<path fill="#F45D5D" d="M681.764,233.14c5.224-1.867,9.262,1.192,9.021,6.834l-0.208,4.875l-3.285,1.174l-10.966,3.919
					l-4.662,1.666l0.208-4.875C672.112,241.091,676.54,235.007,681.764,233.14z"/>
			</g>
		</g>
		<g enable-background="new    ">
			<g>
				<defs>
					<path id="SVGID_1_" d="M609.924,595.619l-120.811-85.252c-3.125-2.199-4.961-6.219-4.737-11.48l120.812,85.252
						C604.963,589.4,606.799,593.42,609.924,595.619z"/>
				</defs>
				<use xlink:href="#SVGID_1_"  overflow="visible" fill="#D35050"/>
				<clipPath id="SVGID_2_">
					<use xlink:href="#SVGID_1_"  overflow="visible"/>
				</clipPath>
				<g clip-path="url(#SVGID_2_)" enable-background="new    ">
					<path fill="#D35050" d="M609.924,595.619l-120.811-85.252c-3.125-2.199-4.961-6.219-4.737-11.48l120.812,85.252
						C604.963,589.4,606.799,593.42,609.924,595.619"/>
				</g>
			</g>
			<path fill="#FF6160" d="M702.124,312.562c2.057-0.358,4.251-0.097,5.991,1.13c-8.078-5.684-105.419-74.422-116.873-82.481
				c-3.8-2.674-6.896-5.177-11.918-3.382c7.208,5.071,14.416,10.143,21.624,15.215c11.293,7.946,80.864,57.145,92.157,65.091
				c1.771,1.246,3.543,2.493,5.315,3.74c0.411,0.289,0.904,0.788,1.375,0.968C700.6,313.147,701.185,312.726,702.124,312.562z"/>
			<g>
				<polygon fill="#FF8A8A" points="639.017,334.923 518.206,249.671 579.325,227.829 700.136,313.081 				"/>
			</g>
			<g>
				<polygon fill="#F45858" points="605.188,584.139 484.376,498.887 493.547,283.542 614.358,368.794 				"/>
			</g>
			<path fill="#FF6160" d="M614.891,364.436c2.37-12.603,11.864-25.133,24.126-29.512c-8.63-6.073-107.112-75.613-118.584-83.685
				c-0.52-0.365-1.574-1.467-2.225-1.565c-1.039-0.156-3.216,1.377-4.151,1.882c-1.444,0.779-2.815,1.664-4.127,2.647
				c-2.307,1.73-4.425,3.714-6.319,5.888c-3.79,4.349-6.738,9.452-8.509,14.948c-0.407,1.262-0.735,2.556-0.979,3.859
				c-0.198,1.062-1.049,3.648-0.573,4.646c0.086,0.18,0.491,0.307,0.633,0.445c1.149,1.124,2.811,1.978,4.123,2.9
				c2.416,1.7,109.095,77.009,111.483,78.689c1.208,0.85,2.655,2.316,4.043,2.845c0.182,0.069,0.365,0.256,0.527,0.37
				C614.421,367.32,614.619,365.883,614.891,364.436z"/>
			<g>
				<path fill="#F45D5D" d="M700.136,313.081c6.497-2.322,11.538,1.48,11.238,8.513l-9.845,231.168
					c-0.362,8.503-7.034,17.672-14.907,20.485l-65.085,23.26c-9.457,3.38-16.785-2.154-16.35-12.368l9.171-215.344
					c0.599-14.049,11.636-29.217,24.659-33.871L700.136,313.081z"/>
			</g>
			<path fill="none" stroke="#702A2A" stroke-miterlimit="10" stroke-dasharray="5" d="M549.367,238.535l114.291,79.175
				c4.995,3.46,7.903,9.208,7.733,15.281l-5.174,184.812"/>
			<path fill="#A83D3D" d="M664.53,282.564l-59.244,19.954c-19.975,6.728-33.72,25.092-34.544,46.153l-4.529,115.72l19.45,11.022
				l4.8-118.408c0.775-19.129,13.311-35.78,31.479-41.815l60.035-19.943L664.53,282.564z"/>
			<path fill="#A83D3D" d="M605.636,242.1l-65.714,22.184c-19.975,6.728-33.72,25.092-34.544,46.153l-4.529,115.72l19.45,11.022
				l4.8-118.408c0.775-19.129,13.311-35.78,31.479-41.815l66.505-22.173L605.636,242.1z"/>
			<polygon fill="#F45858" points="528.698,355.628 500.848,338.057 500.848,326.629 528.698,344.201 			"/>
			<polygon fill="#F45858" points="527.379,376.553 499.528,358.98 499.528,347.553 527.379,365.125 			"/>
			<polygon fill="#F45858" points="593.136,389.383 565.286,371.811 565.286,360.383 593.136,377.955 			"/>
			<polygon fill="#F45858" points="591.816,410.307 563.966,392.734 563.966,381.307 591.816,398.879 			"/>
			<path fill="#FF6160" d="M585.31,554.484l11.954-72.497l-98.353-60.412c-21.362-1.896-17.216,36.172-17.755,52.674
				c-0.248,7.602,2.931,12.772,6.418,15.356L585.31,554.484z"/>
			<path fill="#D35050" d="M597.263,481.988l-2.929,76.318c0,0-15.548-1.623-15.01-18.126
				C579.863,523.679,575.901,480.093,597.263,481.988z"/>
			<g>
				<g>
					<line fill="none" stroke="#702A2A" stroke-miterlimit="10" x1="493.407" y1="433.841" x2="495.589" y2="435.062"/>
					
						<line fill="none" stroke="#702A2A" stroke-miterlimit="10" stroke-dasharray="4.9183,4.9183" x1="499.88" y1="437.464" x2="574.984" y2="479.506"/>
					<line fill="none" stroke="#702A2A" stroke-miterlimit="10" x1="577.13" y1="480.707" x2="579.311" y2="481.928"/>
				</g>
			</g>
			<path fill="#FF6160" d="M705.414,455.812l-96.243,22.386l8.108,119.234l73.031-26.027c26.167,0,28.579-43.592,28.579-43.592
				C723.416,462.176,705.414,455.812,705.414,455.812z"/>
			<path fill="#D35050" d="M609.171,478.198c0,0,21.61,6.719,17.083,72.355c0,0-2.395,34.15-8.974,46.879c0,0-13,0.813-12.111-16.46
				C606.058,563.697,609.171,478.198,609.171,478.198z"/>
			
				<line fill="none" stroke="#702A2A" stroke-miterlimit="10" stroke-dasharray="5" x1="626.877" y1="490.341" x2="708.115" y2="470.962"/>
		</g>
	</g>
	<g>
		<circle fill="#FEB862" cx="968.235" cy="148.301" r="42.546"/>
		<path fill="#FFCE61" d="M1020.133,218.625c-23.284,27.007-69.738,25.855-104.684-3.356
			c-34.944-29.212-58.744-87.675-14.848-131.487c21.572-21.53,30.044,15.563,85.908,53.28
			C1040.089,173.237,1032.2,204.628,1020.133,218.625z"/>
		<path fill="#2E4E75" d="M766.735,675.213l14.659-7.697l-16.688-45.151l-55.025-148.896c-1.598-4.291-4.262-7.875-7.611-10.539
			c-6.306-5.017-14.966-6.758-23.103-3.894c-14.154,4.964-20.418,21.468-13.139,34.581l77.12,138.784L766.735,675.213z"/>
		<path fill="#682F1D" d="M781.395,667.516l-16.688-45.151l-36.817-99.626c-11.582,6.872-29.747,8.603-40.89,8.978L742.947,632.4
			l23.788,42.812L781.395,667.516z"/>
		<path fill="#2E4E75" d="M663.063,485.989L663.063,485.989c-2.483-12.959,5.71-25.567,18.562-28.561l174.883-40.742l24.527,71.841
			l-191.622,17.315C676.833,506.979,665.44,498.395,663.063,485.989z"/>
		<polygon fill="#682F1D" points="765.361,671.768 753.665,692.039 786.415,673.86 781.537,667.289 		"/>
		<path fill="#543720" d="M948.269,141.76c84.112,26.287-8.438,34.056,64.496,91.398c39.877,31.352,156.892-26.7,162.689,115.752
			c1.884,46.289-56.965,105.729-163.88,73.214c-143.56-43.66-125.93-255.446-90.997-277.12
			C920.577,145.004,938.07,138.573,948.269,141.76z"/>
		<path fill="#31527F" d="M820.473,590.068c-1.108-1.883-2.481-3.651-4.139-5.231c-10.846-10.345-28.393-8.454-36.781,3.983
			l-77.331,114.761l-38.748,57.522l13.49,9.578l45.198-48.894l95.231-103.021C824.808,610.747,825.758,599.051,820.473,590.068z"/>
		<path fill="#31527F" d="M785.121,619.615L785.121,619.615c-10.396-8.126-12.522-23.011-4.814-33.721l91.845-155.522l72.886,16.073
			l-2.292,25.863c-2.382,26.869-15.228,51.726-35.77,69.209l-88.95,75.711C809.301,626.36,795.073,627.393,785.121,619.615z"/>
		<path fill="#326187" d="M762.424,197.965l84.79,72.792c13.885,12.21,35.323,9.521,45.764-5.739v0
			c10.187-14.89,5.452-35.308-10.247-44.196l-100.429-50.804c-7.83-4.433-17.753-2.099-22.785,5.36v0
			C754.667,182.566,755.912,192.239,762.424,197.965z"/>
		
			<rect x="919.508" y="201.217" transform="matrix(-0.9928 -0.1194 0.1194 -0.9928 1838.3018 540.7162)" fill="#E2906D" width="31.678" height="28.158"/>
		<path fill="#EE9F74" d="M913.391,171.154c-4.677,15.37-4.068,40.991,3.915,40.852c6.942-0.121,34.91,0.011,46.655-23.453
			c16.672-33.31-0.425-38.372-13.614-41.275C942.062,145.455,919.863,149.882,913.391,171.154z"/>
		<polygon fill="#682F1D" points="667.729,756.867 644.752,752.42 672.614,777.453 677.237,770.699 		"/>
		<path fill="#FFFFFF" d="M924.159,197.492l-9.971-0.417c0,0,1.282,3.866,3.041,3.987
			C918.987,201.184,923.706,199.399,924.159,197.492z"/>
		<path fill="#356492" d="M846.456,313.728c1.33,0.795,2.647,1.472,4.018,2.083c2.315,28.877,6.587,46.762,6.587,46.762
			l-85.232,73.841c0,0,32.587,49.24,55.637,65.292c21.381,14.889,91.143,30.874,107.882,12.128
			c30.556-34.218,13.136-129.958,13.136-129.958l51.361-100.265c8.236-14.513,0.354-32.878-15.839-36.906l-37.538-9.337
			l-36.438-9.078l-29.817-7.425c-14.162-3.509-28.443,5.422-31.438,19.697c-0.957,4.69-1.316,12.446-1.207,21.926
			c-2.792,7.325-6.027,12.545-8.792,17.03C830.176,293.484,832.49,305.129,846.456,313.728z"/>
		<path fill="#356492" d="M915.449,215.269c0,0,9.041,8.115,35.308,3.55c0,0,9.241,15.146-0.257,21.34
			c-9.819,6.404-40.404-8.994-40.404-8.994S908.654,220.812,915.449,215.269z"/>
		<path fill="#EE9F74" d="M913.051,182.903c0,0-3.966,3.917-7.898,6.96c0,0,6.784,5.681,9.887,2.707L913.051,182.903z"/>
		<path fill="#543720" d="M924.395,157.957c0,0,22.68,10.641,19.57,38.086c-3.308,29.193,10.824,39.553,10.824,39.553
			s25.301-37.054,21.885-63.858c-3.415-26.805-36.727-32.221-36.727-32.221s-27.869-5.229-25.294,28.158
			C914.653,167.675,917.002,157.935,924.395,157.957z"/>
		<path fill="#EE9F74" d="M883.05,123.138l-115.317,45.739c-8.943,3.547-13.17,13.798-9.325,22.618l0,0
			c4.031,9.248,15.178,12.978,23.963,8.019l108.183-61.059L883.05,123.138z"/>
		<path fill="#EE9F74" d="M888.308,137.59c0,0,11.613,3.865,16.537,0.954c4.925-2.912-4.123-6.605-4.123-6.605
			s21.181-7.41,15.947-15.965c-5.234-8.555-25.085-2.495-34.395,8.366L888.308,137.59z"/>
		<path fill="#3E6E96" d="M842.077,291.77l135.79-40.681c17.981-4.307,35.68,8.088,37.778,26.458l0,0
			c2.049,17.924-11.678,33.764-29.711,34.287l-139.343,13.934c-8.994,0.261-16.676-6.44-17.64-15.386l0,0
			C828.023,301.759,833.645,293.79,842.077,291.77z"/>
		<g>
			<path fill="#EE9F74" d="M726.335,265.427l121.251,26.24c9.403,2.035,15.251,11.456,12.902,20.786l0,0
				c-2.463,9.783-12.848,15.288-22.327,11.834l-116.72-42.521L726.335,265.427z"/>
		</g>
		<g enable-background="new    ">
			<path fill="#F7E5BF" d="M704.369,207.019l5.74-1.649c-0.027-0.008-0.056-0.016-0.083-0.022c-0.046-0.011-0.091-0.021-0.136-0.029
				c-0.049-0.009-0.097-0.016-0.145-0.022c-0.051-0.005-0.102-0.009-0.151-0.01c-0.01,0-0.02,0-0.029,0c-0.007,0-0.013,0-0.02,0
				c-0.038,0-0.077-0.001-0.114,0.001c-0.064,0.004-0.128,0.01-0.19,0.021c-0.066,0.011-0.132,0.025-0.196,0.044l-5.741,1.649
				c0.16-0.046,0.328-0.068,0.502-0.067c0.006,0,0.012,0,0.018,0C704,206.938,704.182,206.964,704.369,207.019z"/>
			<path fill="#856B32" d="M730.807,272.471c-1.614,0.463-3.229,0.927-4.842,1.391c-0.947,0.272-0.815,0.219-0.952,1.186
				c-0.138,0.974-0.596,2.126-1.648,2.427c1.865-0.536,3.968-0.869,5.741-1.649C730.459,275.231,730.846,273.846,730.807,272.471z"
				/>
			<g>
				<polygon fill="#FFEDC5" points="704.369,207.019 710.109,205.369 725.835,209.94 720.094,211.589 				"/>
			</g>
			<g>
				<polygon fill="#F4D99D" points="723.132,216.612 728.873,214.963 730.807,272.471 725.065,274.12 				"/>
			</g>
			<path fill="#F7E5BF" d="M721.229,212.244c1.167,0.934,1.853,2.872,1.902,4.368c0.767-0.22,5.741-1.649,5.741-1.649
				s0.13-2.022-0.75-3.374c-0.689-1.057-2.288-1.649-2.288-1.649s-4.021,1.155-5.741,1.649
				C720.515,211.711,720.903,211.956,721.229,212.244z"/>
			<g>
				<path fill="#FEE5A5" d="M720.094,211.589c1.597,0.464,2.961,2.714,3.038,5.023l1.934,57.508
					c0.077,2.309-1.161,3.802-2.758,3.338l-15.725-4.57c-1.605-0.467-2.97-2.717-3.048-5.026l-1.933-57.508
					c-0.078-2.309,1.16-3.802,2.767-3.335L720.094,211.589z"/>
			</g>
			<g>
				<path fill="#E0C485" d="M719.759,213.108c1.518,0.441,2.813,2.579,2.888,4.774l1.837,54.657c0.074,2.195-1.103,3.614-2.62,3.173
					l-14.945-4.344c-1.526-0.443-2.823-2.582-2.896-4.776l-1.838-54.657c-0.073-2.195,1.104-3.614,2.63-3.17L719.759,213.108z"/>
			</g>
		</g>
		<path fill="#EE9F74" d="M728.311,279.398c3.63-2.027,5.973-5.745,6.29-9.891c0.264-3.451,0.104-7.346-1.479-9.583
			c-3.306-4.669-6.245,4.651-6.245,4.651s-9.122-20.501-17.219-14.584c-6.857,5.012-2.408,19.611,6.152,29.059
			c2.571,2.838,6.743,3.563,10.087,1.696L728.311,279.398z"/>
		<path fill="#FFCE61" d="M920.577,145.004c0,0,26.549-4.532,61.988,48.678c0,0,18.928-14.309,12.137-30.002
			C987.911,147.988,942.323,113.559,920.577,145.004z"/>
		<path fill="#BA4542" d="M854.956,351.89c0,0,33.524,28.49,97.905,23.437c0,0,3.109,12.365-4.76,15.464
			c0,0-64.446,8.789-93.146-24.09C854.956,366.701,849.258,358.663,854.956,351.89z"/>
		<path fill="#682F1D" d="M765.053,675.389c-13.509-10.216-21.035-20.064-25.198-27.655l-37.633,55.848l-38.748,57.522l13.49,9.578
			l45.198-48.894L765.053,675.389z"/>
		<path fill="#3E6E96" d="M810.906,283.729c0,0,9.979,12.752-3.637,29.305c0,0,6.57,8.845,16.499,9.236
			c0,0,14.938,6.161,22.253,5.391c7.316-0.77,18.48-9.231,18.483-16.172c0.006-19.253-16.534-21.485-16.534-21.485l-17.317-2.001
			C830.653,288.003,816.606,281.383,810.906,283.729z"/>
		<path fill="#3E6E96" d="M809.398,152.351c0,0-4.159,17.287,13.152,24.486c0,0-7.604,10.093-13.591,10.571
			c0,0-40.719,32.694-50.553,4.088c-7.94-23.101,16.38-28.554,16.38-28.554S797.803,149.161,809.398,152.351z"/>
	</g>
	<g>
		<path fill="#16537F" d="M888.895,422.962c0,0,46.257-66.513,127.206-58.814c0,0,0,42.984-49.815,59.589
			C922.402,438.364,888.895,422.962,888.895,422.962z"/>
		<path fill="#134863" d="M904.268,427.609c13.921,2.938,36.164,4.745,62.018-3.873c32.466-10.822,43.767-32.842,47.704-46.872
			C957.22,375.801,919.155,410.873,904.268,427.609z"/>
		<path fill="#0FA6D1" d="M888.895,422.962c0,0-5.338,99.944-3.559,118.706c1.779,18.763,131.654,21.482,154.782-46.148
			c0,0,8.896-75.022-24.018-131.372C1016.101,364.147,987.635,426.042,888.895,422.962z"/>
		<g>
			<line fill="none" stroke="#16537F" stroke-miterlimit="10" x1="896.455" y1="423.066" x2="893.924" y2="548.811"/>
			<line fill="none" stroke="#16537F" stroke-miterlimit="10" x1="908.482" y1="423.066" x2="908.482" y2="552.076"/>
			<line fill="none" stroke="#16537F" stroke-miterlimit="10" x1="918.271" y1="421.867" x2="922.452" y2="553.106"/>
			<line fill="none" stroke="#16537F" stroke-miterlimit="10" x1="932.018" y1="419.779" x2="936.043" y2="552.903"/>
			<line fill="none" stroke="#16537F" stroke-miterlimit="10" x1="943.048" y1="417.248" x2="948.584" y2="551.823"/>
			<line fill="none" stroke="#16537F" stroke-miterlimit="10" x1="952.497" y1="414.38" x2="959.128" y2="550.259"/>
			<line fill="none" stroke="#16537F" stroke-miterlimit="10" x1="963.093" y1="410.277" x2="971.37" y2="547.657"/>
			<line fill="none" stroke="#16537F" stroke-miterlimit="10" x1="974.625" y1="404.558" x2="982.457" y2="544.456"/>
			<line fill="none" stroke="#16537F" stroke-miterlimit="10" x1="983.938" y1="398.779" x2="992.794" y2="540.611"/>
			<line fill="none" stroke="#16537F" stroke-miterlimit="10" x1="992.794" y1="392.075" x2="1002.644" y2="535.986"/>
			<path fill="none" stroke="#16537F" stroke-miterlimit="10" d="M1013.989,367.975c0,0,28.693,76.082,14.735,147.613"/>
			<path fill="none" stroke="#16537F" stroke-miterlimit="10" d="M997.719,387.71c0,0,13.982,88.739,13.425,143.267"/>
			<path fill="none" stroke="#16537F" stroke-miterlimit="10" d="M1006.133,378.826c0,0,19.231,70.284,14.154,145.292"/>
		</g>
		<g>
			<path fill="#134863" d="M968.771,488.345c-7.604,0-14.466-1.977-20.529-5.929c-23.158-15.096-25.688-53.433-25.783-55.057
				c-0.117-1.961,1.377-3.644,3.339-3.761c1.951-0.128,3.646,1.376,3.764,3.337c0.022,0.362,2.429,36.408,22.583,49.529
				c9.067,5.904,20.659,6.296,34.449,1.167c11.595-4.315,19.486-11.315,23.453-20.805c6.233-14.916,3.205-36.231-9.002-63.355
				c-0.806-1.792-0.007-3.899,1.786-4.705c1.788-0.809,3.897-0.008,4.705,1.784c13.046,28.993,16.101,52.214,9.076,69.021
				c-4.756,11.38-14.021,19.7-27.538,24.73C981.827,486.997,975.047,488.345,968.771,488.345z"/>
		</g>
		<circle fill="#0FA6D1" cx="925.663" cy="427.443" r="1.745"/>
		<circle fill="#0FA6D1" cx="1004.388" cy="392.454" r="1.745"/>
	</g>
	<ellipse fill="#6FAF5A" cx="275.964" cy="540.37" rx="25.073" ry="12.717"/>
	<ellipse fill="#6FAF5A" cx="378.3" cy="585.396" rx="13.499" ry="4.424"/>
	<ellipse fill="#6FAF5A" cx="974.394" cy="824.679" rx="36.766" ry="18.56"/>
	<ellipse fill="#6FAF5A" cx="282.515" cy="417.248" rx="16.438" ry="10.159"/>
	<ellipse fill="#FCFEFB" cx="312.253" cy="695.347" rx="51.866" ry="20.133"/>
</g>
</svg>
